Coordinates
version=1
nRows=8
nColumns=46
inDegrees=yes

Units are S.I. units (second, meters, Newtons, ...)
Angles are in degrees.

endheader
time	pelvis_tilt	pelvis_list	pelvis_rotation	pelvis_tx	pelvis_ty	pelvis_tz	bb_angle	bb_tx	bb_ty	bb_tz	hip_flexion_r	hip_adduction_r	hip_rotation_r	knee_angle_r	knee_angle_r_beta	ankle_angle_r	subtalar_angle_r	mtp_angle_r	crank_angle_r	hip_flexion_l	hip_adduction_l	hip_rotation_l	knee_angle_l	knee_angle_l_beta	ankle_angle_l	subtalar_angle_l	mtp_angle_l	crank_angle_l	lumbar_extension	lumbar_bending	lumbar_rotation	arm_flex_r	arm_add_r	arm_rot_r	elbow_flex_r	pro_sup_r	wrist_flex_r	wrist_dev_r	arm_flex_l	arm_add_l	arm_rot_l	elbow_flex_l	pro_sup_l	wrist_flex_l	wrist_dev_l
      7.50000000	    -10.50318217	     -2.73715929	      1.69988959	      0.14800375	      1.07016441	     -0.27229920	      0.00000000	      0.50000000	      0.00000000	      0.25000000	     64.32797692	     -3.75318387	      1.01869106	    107.28062976	      1.87240021	      0.26695014	    -15.34759782	      0.00000000	      0.00000000	     61.06523676	     -3.65015593	      2.58831830	     64.12327171	      1.11916222	      5.61763532	    -12.22264986	      0.00000000	      0.00000000	    -62.33153254	      1.39604457	      0.44677268	     81.03095880	    -12.00003931	     29.48691743	     47.37573588	     44.86853665	      0.00000000	      0.00000000	     82.50955038	    -13.73101471	     40.27577974	     48.07713935	     44.59611592	      0.00000000	      0.00000000
      7.50500000	    -10.54082873	     -2.92979159	      1.69956359	      0.14779330	      1.07050094	     -0.27240364	      0.00000000	      0.50000000	      0.00000000	      0.25000000	     65.10353693	     -3.61082552	      1.01232973	    108.39822193	      1.89190588	      1.31761623	    -15.18500710	      0.00000000	      0.00000000	     59.92527621	     -3.90181528	      2.45199449	     62.48518797	      1.09057226	      5.23366727	    -12.02089019	      0.00000000	      0.00000000	    -62.29936647	      1.56066785	      0.66729707	     81.14152545	    -11.98831072	     29.53932756	     47.24861043	     44.86397799	      0.00000000	      0.00000000	     82.51484239	    -13.58241847	     40.33546185	     47.84059870	     44.57252998	      0.00000000	      0.00000000
      7.51000000	    -10.62581147	     -3.21844335	      1.70916277	      0.14759204	      1.07084331	     -0.27250641	      0.00000000	      0.50000000	      0.00000000	      0.25000000	     65.90774662	     -3.40450803	      0.88908627	    109.42813104	      1.90988118	      2.19357246	    -15.11970351	      0.00000000	      0.00000000	     58.87829987	     -4.19699274	      2.40909971	     60.91429205	      1.06315496	      4.94526254	    -11.84120754	      0.00000000	      0.00000000	    -62.23343073	      1.81533900	      0.94110065	     81.23356351	    -11.93710857	     29.58273108	     47.17850513	     44.86304474	      0.00000000	      0.00000000	     82.56066845	    -13.51435054	     40.35415171	     47.68750821	     44.55436892	      0.00000000	      0.00000000
      7.51500000	    -10.45175926	     -3.11986291	      1.78796622	      0.14742328	      1.07165100	     -0.27289918	      0.00000000	      0.50000000	      0.00000000	      0.25000000	     66.44323790	     -3.57182062	      1.19698094	    110.56127738	      1.92965832	      3.83940721	    -13.91631111	      0.00000000	      0.00000000	     57.41769351	     -4.14933261	      2.06418974	     59.21405335	      1.03348019	      4.41762691	    -11.97464822	      0.00000000	      0.00000000	    -62.44064127	      1.82717582	      0.88927389	     81.40948135	    -11.97105574	     29.69240432	     46.82223981	     44.84528864	      0.00000000	      0.00000000	     82.82071241	    -13.15035258	     40.40433726	     47.05571585	     44.47460246	      0.00000000	      0.00000000
      7.52000000	    -10.51321377	     -3.36207479	      1.83935076	      0.14722720	      1.07205135	     -0.27309173	      0.00000000	      0.50000000	      0.00000000	      0.25000000	     67.19363905	     -3.49695282	      1.07669345	    111.53186891	      1.94659833	      4.98669826	    -13.77219268	      0.00000000	      0.00000000	     56.37185222	     -4.39672817	      1.96967713	     57.71209644	      1.00726610	      3.96330481	    -11.74779956	      0.00000000	      0.00000000	    -62.41783492	      2.08815337	      1.12824290	     81.51795707	    -11.92299712	     29.76456291	     46.68694187	     44.84731142	      0.00000000	      0.00000000	     82.85657814	    -13.03208548	     40.44046597	     46.74225564	     44.44043077	      0.00000000	      0.00000000
      7.52500000	    -10.49564999	     -3.47048005	      1.90729380	      0.14707980	      1.07267388	     -0.27342208	      0.00000000	      0.50000000	      0.00000000	      0.25000000	     67.85223112	     -3.53279459	      1.13987769	    112.48403041	      1.96321669	      6.36234208	    -13.09099343	      0.00000000	      0.00000000	     55.15989165	     -4.49589841	      1.80381478	     56.12809590	      0.97962008	      3.55108575	    -11.66045860	      0.00000000	      0.00000000	    -62.44175333	      2.25658246	      1.21376675	     81.65637989	    -11.91973690	     29.84443314	     46.46496621	     44.84468512	      0.00000000	      0.00000000	     82.98990479	    -12.83539272	     40.46147066	     46.35625271	     44.39813522	      0.00000000	      0.00000000
      7.53000000	    -10.64394251	     -3.81531552	      1.92122390	      0.14689220	      1.07287124	     -0.27349454	      0.00000000	      0.50000000	      0.00000000	      0.25000000	     68.71591229	     -3.35867683	      0.93980171	    113.35357107	      1.97839303	      7.18040932	    -13.21363518	      0.00000000	      0.00000000	     54.25072508	     -4.82350156	      1.84131431	     54.74199984	      0.95542814	      3.29429184	    -11.38483705	      0.00000000	      0.00000000	    -62.31692915	      2.57455969	      1.54342186	     81.73787814	    -11.84274341	     29.87983243	     46.44716355	     44.84952912	      0.00000000	      0.00000000	     82.98869917	    -12.85372901	     40.45909363	     46.27283280	     44.38888563	      0.00000000	      0.00000000
      7.53500000	    -10.54156369	     -3.79649151	      2.04570617	      0.14677351	      1.07361920	     -0.27393524	      0.00000000	      0.50000000	      0.00000000	      0.25000000	     69.26260926	     -3.54859295	      1.13090474	    114.26945414	      1.99437821	      8.87360883	    -12.13650159	      0.00000000	      0.00000000	     52.95400012	     -4.80113248	      1.61069051	     53.22357811	      0.92892668	      2.76977103	    -11.24070224	      0.00000000	      0.00000000	    -62.44758162	      2.67418592	      1.47088766	     81.93005660	    -11.81790713	     29.99104430	     46.12269027	     44.83946189	      0.00000000	      0.00000000	     83.08896894	    -12.62702503	     40.43869571	     45.86974243	     44.34471942	      0.00000000	      0.00000000
